<svg width="177" height="32" fill="none" xmlns="http://www.w3.org/2000/svg"><path d="M38.404 30.964V1.148h16.07V5.27H43.076v7.43h11.396v4.235H43.077v9.525h11.396v4.504H38.404zm27.51 0V1.148h6.288c7.052 0 13.689.248 16.855 7.837a18.219 18.219 0 011.222 7.049c.039 2.4-.4 4.784-1.288 7.003-2.925 7.094-8.82 7.927-15.523 7.927h-7.554zm4.716-4.504h3.93c4.585 0 8.274-.608 10.13-5.517.578-1.59.859-3.279.83-4.977a13.754 13.754 0 00-.83-4.977c-1.921-5.111-5.917-5.54-10.676-5.54H70.63V26.46zm38.207 5.517l-12.86-30.85h4.87l6.549 15.764a25.611 25.611 0 011.551 4.751c.375-1.63.893-3.22 1.55-4.751l6.55-15.764h4.825l-13.035 30.851zm20.895-1.013V1.148h16.069V5.27h-11.397v7.43h11.397v4.235h-11.397v9.525h11.397v4.504h-16.069zm24.212 0l9.323-15.538-8.253-14.165h4.913l4.148 7.184c.568.946 1.048 1.959 1.528 2.927a52.663 52.663 0 011.594-2.882l4.367-7.319h4.803l-8.406 14.03L177 30.964h-5.153l-4.825-8.422c-.524-.969-1.026-2.004-1.528-2.995-.48.99-1.004 1.982-1.572 2.927l-5.043 8.49h-4.935zM0 30.964V0l18.23 18.128a43.895 43.895 0 013.123 3.603V1.148h4.366V32L7.074 13.534A23.575 23.575 0 014.3 10.201v20.763H0z" fill="url(#paint0_linear_14_47)"/><defs><linearGradient id="paint0_linear_14_47" x1="-5.8" y1="-13.207" x2="57.824" y2="68.849" gradientUnits="userSpaceOnUse"><stop stop-color="#717171"/><stop offset="1" stop-color="#454545"/></linearGradient></defs></svg>