<svg width="36" height="36" fill="none" xmlns="http://www.w3.org/2000/svg"><path d="M24 2.846c0-.69.56-1.25 1.25-1.25H34a.75.75 0 000-1.5h-8.75a2.75 2.75 0 00-2.75 2.75v7.5c0 .69-.56 1.25-1.25 1.25h-7.5a2.75 2.75 0 00-2.75 2.75v7.5c0 .69-.56 1.25-1.25 1.25h-7A2.75 2.75 0 000 25.846v7a2.75 2.75 0 002.75 2.75h30a2.75 2.75 0 002.75-2.75V8.096a.75.75 0 00-1.5 0v24.75c0 .69-.56 1.25-1.25 1.25h-30c-.69 0-1.25-.56-1.25-1.25v-7c0-.69.56-1.25 1.25-1.25h7a2.75 2.75 0 002.75-2.75v-7.5c0-.69.56-1.25 1.25-1.25h7.5a2.75 2.75 0 002.75-2.75v-7.5z" fill="url(#paint0_linear_14_67)"/><defs><linearGradient id="paint0_linear_14_67" x1="0" y1="-61.117" x2="49.188" y2="-52.368" gradientUnits="userSpaceOnUse"><stop stop-color="#617AFF"/><stop offset="1" stop-color="#734DDD"/></linearGradient></defs></svg>