<svg width="46" height="37" viewBox="0 0 46 37" fill="none" xmlns="http://www.w3.org/2000/svg">
<path d="M42.1667 18.4782H38.3334V20.0116H39.8667V21.5449C39.8674 22.1548 40.1101 22.7394 40.541 23.1707C40.9722 23.6016 41.5568 23.8442 42.1667 23.8449H44.4667V27.6782C44.466 28.2881 44.2234 28.8727 43.7925 29.304C43.3612 29.7349 42.7766 29.9776 42.1667 29.9782H41.3388C41.093 28.2614 40.0317 26.7696 38.4901 25.9745C36.9489 25.1794 35.1179 25.1794 33.5766 25.9745C32.0351 26.7696 30.9738 28.2615 30.728 29.9782H15.2721C15.0263 28.2614 13.965 26.7696 12.4234 25.9745C10.8822 25.1794 9.05114 25.1794 7.50993 25.9745C5.96836 26.7696 4.90704 28.2615 4.66127 29.9782H3.83334C3.22344 29.9776 2.63884 29.7349 2.20758 29.304C1.77667 28.8727 1.53401 28.2881 1.53333 27.6782V23.8449H4.59998C5.20988 23.8442 5.79448 23.6016 6.22574 23.1707C6.65665 22.7394 6.89931 22.1548 6.9 21.5449V20.0116H12.0458C12.4874 20.0109 12.9193 19.8836 13.2906 19.6443C13.6616 19.4054 13.9567 19.0649 14.1398 18.6631L17.1554 12.028V12.0283C17.2804 11.7545 17.5532 11.5786 17.854 11.5782H27.5998V10.0449H17.854C17.4125 10.0456 16.9805 10.1729 16.6092 10.4122C16.2382 10.6511 15.9432 10.9916 15.7601 11.3934L12.7444 18.0285V18.0282C12.6195 18.302 12.3467 18.4779 12.0458 18.4782H2.30002C1.69011 18.4789 1.10551 18.7216 0.674252 19.1525C0.243343 19.5837 0.000683425 20.1683 0 20.7783V27.6782C0.0010268 28.6944 0.405578 29.6688 1.12397 30.3876C1.84272 31.106 2.81711 31.5105 3.83332 31.5115H4.66124C4.90699 33.2283 5.96834 34.7202 7.5099 35.5153C9.05111 36.3103 10.8822 36.3103 12.4234 35.5153C13.9649 34.7202 15.0263 33.2282 15.272 31.5115H30.728C30.9737 33.2283 32.0351 34.7202 33.5766 35.5153C35.1178 36.3103 36.9489 36.3103 38.4901 35.5153C40.0317 34.7202 41.093 33.2282 41.3388 31.5115H42.1667C43.1829 31.5105 44.1573 31.106 44.876 30.3876C45.5944 29.6688 45.9989 28.6944 46 27.6782V22.3116C45.999 21.2954 45.5944 20.321 44.876 19.6022C44.1573 18.8838 43.1829 18.4793 42.1667 18.4783L42.1667 18.4782ZM1.53356 20.7782C1.53391 20.3549 1.87685 20.0119 2.30023 20.0116H5.36688V21.5449C5.36654 21.9683 5.02359 22.3112 4.60022 22.3116H1.53356V20.7782ZM9.96686 34.5782C8.95031 34.5782 7.97529 34.1743 7.25611 33.4556C6.53737 32.7365 6.13354 31.7614 6.13354 30.7448C6.13354 29.7283 6.53741 28.7533 7.25611 28.0341C7.9752 27.3154 8.95031 26.9115 9.96686 26.9115C10.9834 26.9115 11.9584 27.3154 12.6776 28.0341C13.3963 28.7532 13.8002 29.7283 13.8002 30.7448C13.7991 31.761 13.3946 32.7355 12.6762 33.4542C11.9575 34.1726 10.9831 34.5771 9.96686 34.5782ZM36.0334 34.5782C35.0169 34.5782 34.0418 34.1743 33.3227 33.4556C32.6039 32.7365 32.2001 31.7614 32.2001 30.7448C32.2001 29.7283 32.604 28.7533 33.3227 28.0341C34.0417 27.3154 35.0169 26.9115 36.0334 26.9115C37.05 26.9115 38.025 27.3154 38.7441 28.0341C39.4629 28.7532 39.8667 29.7283 39.8667 30.7448C39.8657 31.761 39.4611 32.7355 38.7427 33.4542C38.024 34.1726 37.0496 34.5771 36.0334 34.5782ZM42.1667 22.3116C41.7433 22.3112 41.4004 21.9683 41.4 21.5449V20.0116H42.1667C42.7766 20.0122 43.3612 20.2549 43.7925 20.6858C44.2234 21.1171 44.466 21.7017 44.4667 22.3116L42.1667 22.3116Z" fill="url(#paint0_linear_14_60)"/>
<path d="M28.3665 14.6466V13.1133H19.6721C19.3719 13.1129 19.0782 13.2009 18.8277 13.3659C18.5772 13.5312 18.3807 13.7663 18.263 14.0425L16.6205 17.8758H16.6201C16.4172 18.3495 16.4654 18.8937 16.7492 19.3239C17.0329 19.7541 17.5138 20.0132 18.0292 20.0132H32.1998C32.8097 20.0125 33.3943 19.7699 33.8255 19.339C34.2564 18.9077 34.4991 18.3231 34.4998 17.7132H32.9664C32.9661 18.1366 32.6232 18.4795 32.1998 18.4799H26.0665V14.6466L28.3665 14.6466ZM24.5331 18.4803L18.0285 18.483L19.6721 14.6466H24.5331V18.4803Z" fill="url(#paint1_linear_14_60)"/>
<path d="M9.96596 28.4454C9.35606 28.4454 8.77076 28.6877 8.33958 29.119C7.90841 29.5502 7.66602 30.1355 7.66602 30.7453C7.66602 31.3552 7.90833 31.9405 8.33958 32.3717C8.77083 32.8029 9.35614 33.0453 9.96596 33.0453C10.5758 33.0453 11.1612 32.803 11.5923 32.3717C12.0235 31.9405 12.2659 31.3552 12.2659 30.7453C12.2652 30.1354 12.0226 29.5508 11.5917 29.1196C11.1604 28.6887 10.5758 28.446 9.96589 28.4453L9.96596 28.4454ZM9.96596 31.512C9.65587 31.512 9.37624 31.3252 9.25783 31.0387C9.13906 30.7522 9.20443 30.4226 9.42382 30.2032C9.64321 29.9838 9.9728 29.9185 10.2593 30.0372C10.5458 30.1557 10.7326 30.4353 10.7326 30.7454C10.7323 31.1687 10.3893 31.5117 9.96596 31.512Z" fill="url(#paint2_linear_14_60)"/>
<path d="M36.0343 28.4454C35.4244 28.4454 34.8391 28.6877 34.4079 29.119C33.9768 29.5502 33.7344 30.1355 33.7344 30.7453C33.7344 31.3552 33.9767 31.9405 34.4079 32.3717C34.8392 32.8029 35.4245 33.0453 36.0343 33.0453C36.6441 33.0453 37.2295 32.803 37.6607 32.3717C38.0919 31.9405 38.3343 31.3552 38.3343 30.7453C38.3336 30.1354 38.0909 29.5508 37.66 29.1196C37.2288 28.6887 36.6442 28.446 36.0343 28.4453L36.0343 28.4454ZM36.0343 31.512C35.7242 31.512 35.4446 31.3252 35.3262 31.0387C35.2074 30.7522 35.2728 30.4226 35.4922 30.2032C35.7116 29.9838 36.0412 29.9185 36.3276 30.0372C36.6141 30.1557 36.801 30.4353 36.801 30.7454C36.8006 31.1687 36.4577 31.5117 36.0343 31.512Z" fill="url(#paint3_linear_14_60)"/>
<path d="M36.7994 16.179C38.8328 16.179 40.7827 15.3712 42.2205 13.9334C43.6583 12.4955 44.4661 10.5457 44.4661 8.51233C44.4661 6.47897 43.6583 4.5291 42.2205 3.09128C40.7827 1.65346 38.8328 0.845703 36.7994 0.845703C34.7661 0.845703 32.8162 1.65344 31.3784 3.09128C29.9406 4.52912 29.1328 6.47897 29.1328 8.51233C29.1352 10.545 29.9436 12.4936 31.3808 13.931C32.8182 15.3681 34.7668 16.1766 36.7994 16.179ZM36.7994 2.37903C38.4262 2.37903 39.9862 3.02522 41.1362 4.17556C42.2866 5.32556 42.9327 6.88561 42.9327 8.51233C42.9327 10.1391 42.2866 11.6991 41.1362 12.8491C39.9862 13.9995 38.4262 14.6456 36.7994 14.6456C35.1727 14.6456 33.6127 13.9995 32.4627 12.8491C31.3123 11.6991 30.6661 10.1391 30.6661 8.51233C30.6679 6.88622 31.3147 5.32722 32.4647 4.17758C33.6143 3.02758 35.1733 2.38069 36.7994 2.37903Z" fill="url(#paint4_linear_14_60)"/>
<path d="M35.0433 11.3541L36.8011 9.59594L38.5589 11.3541L39.6432 10.2698L37.885 8.51201L39.6432 6.7542L38.5589 5.66992L36.8011 7.42808L35.0433 5.66992L33.959 6.7542L35.7171 8.51201L33.959 10.2698L35.0433 11.3541Z" fill="url(#paint5_linear_14_60)"/>
<defs>
<linearGradient id="paint0_linear_14_60" x1="3.48371e-06" y1="-34.9018" x2="59.8559" y2="-16.1137" gradientUnits="userSpaceOnUse">
<stop stop-color="#617AFF"/>
<stop offset="1" stop-color="#734DDD"/>
</linearGradient>
<linearGradient id="paint1_linear_14_60" x1="16.4961" y1="1.21571" x2="37.6701" y2="11.0427" gradientUnits="userSpaceOnUse">
<stop stop-color="#617AFF"/>
<stop offset="1" stop-color="#734DDD"/>
</linearGradient>
<linearGradient id="paint2_linear_14_60" x1="7.66602" y1="20.5136" x2="14.0395" y2="21.6472" gradientUnits="userSpaceOnUse">
<stop stop-color="#617AFF"/>
<stop offset="1" stop-color="#734DDD"/>
</linearGradient>
<linearGradient id="paint3_linear_14_60" x1="33.7344" y1="20.5136" x2="40.1079" y2="21.6473" gradientUnits="userSpaceOnUse">
<stop stop-color="#617AFF"/>
<stop offset="1" stop-color="#734DDD"/>
</linearGradient>
<linearGradient id="paint4_linear_14_60" x1="29.1328" y1="-25.5934" x2="50.3783" y2="-21.8145" gradientUnits="userSpaceOnUse">
<stop stop-color="#617AFF"/>
<stop offset="1" stop-color="#734DDD"/>
</linearGradient>
<linearGradient id="paint5_linear_14_60" x1="33.959" y1="-4.13129" x2="41.8349" y2="-2.73041" gradientUnits="userSpaceOnUse">
<stop stop-color="#617AFF"/>
<stop offset="1" stop-color="#734DDD"/>
</linearGradient>
</defs>
</svg>
