<svg width="177" height="32" viewBox="0 0 177 32" fill="none" xmlns="http://www.w3.org/2000/svg">
<path d="M38.4042 30.9641V1.14849H54.4733V5.26953H43.0765V12.7009H54.4733V16.9346H43.0765V26.4602H54.4733V30.9641H38.4042ZM65.9138 30.9641V1.14849H72.2017C79.2537 1.14849 85.891 1.3962 89.0567 8.98522C89.925 11.2245 90.341 13.6229 90.2794 16.0338C90.318 18.4345 89.8796 20.818 88.9912 23.0373C86.0656 30.1309 80.1707 30.9641 73.468 30.9641H65.9138ZM70.6297 26.4602H74.5596C79.1446 26.4602 82.8343 25.8522 84.6901 20.943C85.2675 19.3526 85.5489 17.6642 85.5198 15.9662C85.5521 14.268 85.2705 12.579 84.6901 10.9894C82.7688 5.87755 78.7734 5.44968 74.0138 5.44968H70.6297V26.4602ZM108.837 31.9775L95.9778 1.12597H100.847L107.396 16.8895C108.066 18.416 108.585 20.0078 108.947 21.6411C109.322 20.0118 109.84 18.4212 110.497 16.8895L117.047 1.12597H121.872L108.837 31.9775ZM129.732 30.9641V1.14849H145.801V5.26953H134.404V12.7009H145.801V16.9346H134.404V26.4602H145.801V30.9641H129.732ZM153.944 30.9641L163.267 15.4258L155.014 1.26108H159.927L164.075 8.44476C164.643 9.39057 165.123 10.4039 165.603 11.3723C166.105 10.4039 166.629 9.43561 167.197 8.4898L171.564 1.17101H176.367L167.961 15.2006L177 30.9641H171.847L167.022 22.5419C166.498 21.5735 165.996 20.5377 165.494 19.5468C165.014 20.5377 164.49 21.5285 163.922 22.4743L158.879 30.9641H153.944ZM0 30.9641V0L18.2305 18.1281C19.334 19.2697 20.3763 20.4725 21.3527 21.7312V1.14849H25.7193V32L7.07388 13.5341C6.05184 12.5139 5.12361 11.3981 4.30109 10.2013V30.9641H0Z" fill="url(#paint0_linear_14_47)"/>
<defs>
<linearGradient id="paint0_linear_14_47" x1="-5.79999" y1="-13.2075" x2="57.8236" y2="68.8491" gradientUnits="userSpaceOnUse">
<stop stop-color="#717171"/>
<stop offset="1" stop-color="#454545"/>
</linearGradient>
</defs>
</svg>
