<svg width="36" height="36" viewBox="0 0 36 36" fill="none" xmlns="http://www.w3.org/2000/svg">
<path d="M24 2.8457C24 2.15533 24.5597 1.5957 25.25 1.5957H34C34.4142 1.5957 34.75 1.25992 34.75 0.845703C34.75 0.43149 34.4142 0.0957031 34 0.0957031H25.25C23.7312 0.0957031 22.5 1.3269 22.5 2.8457V10.3457C22.5 11.0361 21.9403 11.5957 21.25 11.5957H13.75C12.2312 11.5957 11 12.8269 11 14.3457V21.8457C11 22.5361 10.4403 23.0957 9.75 23.0957H2.75C1.2312 23.0957 0 24.3269 0 25.8457V32.8457C0 34.3645 1.2312 35.5957 2.75 35.5957H32.75C34.2688 35.5957 35.5 34.3645 35.5 32.8457V8.0957C35.5 7.68149 35.1642 7.3457 34.75 7.3457C34.3358 7.3457 34 7.68149 34 8.0957V32.8457C34 33.5361 33.4403 34.0957 32.75 34.0957H2.75C2.05969 34.0957 1.5 33.5361 1.5 32.8457V25.8457C1.5 25.1553 2.05969 24.5957 2.75 24.5957H9.75C11.2688 24.5957 12.5 23.3645 12.5 21.8457V14.3457C12.5 13.6553 13.0597 13.0957 13.75 13.0957H21.25C22.7688 13.0957 24 11.8645 24 10.3457V2.8457Z" fill="url(#paint0_linear_14_67)"/>
<defs>
<linearGradient id="paint0_linear_14_67" x1="2.68851e-06" y1="-61.1169" x2="49.1882" y2="-52.3678" gradientUnits="userSpaceOnUse">
<stop stop-color="#617AFF"/>
<stop offset="1" stop-color="#734DDD"/>
</linearGradient>
</defs>
</svg>
